<svg width="23" height="28" viewBox="0 0 23 28" fill="none" xmlns="http://www.w3.org/2000/svg">
<path d="M21.7381 1.00001H1.61899C1.277 1.00001 1 1.27702 1 1.61901V26.381C1 26.5451 1.0652 26.7027 1.18136 26.8186C1.2973 26.9348 1.45491 27 1.61901 27H21.7381C21.9022 27 22.0598 26.9348 22.1758 26.8186C22.2919 26.7027 22.3571 26.5451 22.3571 26.381V1.61901C22.3571 1.45491 22.2919 1.2973 22.1758 1.18136C22.0598 1.0652 21.9022 1 21.7381 1L21.7381 1.00001ZM21.1191 25.762H2.2381V2.23811H21.1191V25.762Z" fill="white" />
<path d="M22.2818 26.9247C22.4262 26.7806 22.5071 26.5848 22.5071 26.381V1.61901C22.5071 1.41518 22.4261 1.21935 22.2817 1.0752C22.1376 0.930897 21.9419 0.85 21.7381 0.85H21.6762L21.6762 0.850011H1.61899C1.19415 0.850011 0.85 1.19418 0.85 1.61901V26.381C0.85 26.5847 0.930904 26.7805 1.0752 26.9246C1.21935 27.069 1.41518 27.15 1.61901 27.15H21.7381C21.9419 27.15 22.1377 27.0691 22.2818 26.9247ZM22.2818 26.9247C22.2818 26.9247 22.2818 26.9248 22.2817 26.9248L22.1758 26.8186M22.2818 26.9247C22.2819 26.9247 22.2819 26.9246 22.2819 26.9246L22.1758 26.8186M22.1758 26.8186C22.2919 26.7027 22.3571 26.5451 22.3571 26.381V1.61901C22.3571 1.45491 22.2919 1.2973 22.1758 1.18136L1.18136 26.8186C1.2973 26.9348 1.45491 27 1.61901 27H21.7381C21.9022 27 22.0598 26.9348 22.1758 26.8186ZM20.9691 25.612H2.3881V2.38811H20.9691V25.612Z" stroke="white" stroke-width="0.3"/>
<path d="M4.71421 23.9048H18.6428C18.8069 23.9048 18.9645 23.8396 19.0805 23.7235C19.1966 23.6075 19.2618 23.4499 19.2618 23.2858V9.35719C19.2618 9.1931 19.1966 9.03549 19.0805 8.91955C18.9645 8.80339 18.8069 8.73819 18.6428 8.73819H4.71421C4.37221 8.73819 4.09521 9.0152 4.09521 9.35718V23.2858C4.09521 23.4499 4.16042 23.6075 4.27657 23.7234C4.39252 23.8396 4.55013 23.9048 4.71422 23.9048L4.71421 23.9048ZM18.0238 18.0238H14.6189V14.619H18.0238V18.0238ZM13.3809 18.0238H9.97602V14.619H13.3809V18.0238ZM8.73803 18.0238H5.33315V14.619H8.73803V18.0238ZM5.33315 19.2618H8.73803V22.6667H5.33315V19.2618ZM9.97602 19.2618H13.3809V22.6667H9.97602V19.2618ZM18.0237 22.6667H14.6188V19.2618H18.0237V22.6667ZM18.0237 13.381H14.6188V9.97609H18.0237V13.381ZM13.3808 13.381H9.97591V9.97609H13.3808V13.381ZM5.33315 9.97609H8.73803V13.381H5.33315V9.97609Z" fill="white" />
<path d="M19.1865 23.8295C19.3309 23.6854 19.4118 23.4896 19.4118 23.2858V9.35719C19.4118 9.15337 19.3309 8.95754 19.1864 8.81339C19.0423 8.66909 18.8466 8.58819 18.6428 8.58819H4.71421C4.28937 8.58819 3.94521 8.93236 3.94521 9.35718V23.2858C3.94521 23.4896 4.02619 23.6855 4.1706 23.8296L4.27657 23.7234L4.17041 23.8294C4.24228 23.9014 4.32699 23.9576 4.41913 23.9959L4.3627 24.0548H4.71421H18.6428C18.8466 24.0548 19.0424 23.9739 19.1865 23.8295ZM19.1865 23.8295C19.1865 23.8296 19.1865 23.8296 19.1864 23.8296L19.0805 23.7235L19.1866 23.8294C19.1866 23.8295 19.1866 23.8295 19.1865 23.8295ZM17.8738 17.8738H14.7689V14.769H17.8738V17.8738ZM13.2309 17.8738H10.126V14.769H13.2309V17.8738ZM8.58803 17.8738H5.48315V14.769H8.58803V17.8738ZM5.48315 19.4118H8.58803V22.5167H5.48315V19.4118ZM10.126 19.4118H13.2309V22.5167H10.126V19.4118ZM17.8737 22.5167H14.7688V19.4118H17.8737V22.5167ZM17.8737 13.231H14.7688V10.1261H17.8737V13.231ZM13.2308 13.231H10.1259V10.1261H13.2308V13.231ZM5.48315 10.1261H8.58803V13.231H5.48315V10.1261Z" stroke="white" stroke-width="0.3"/>
<path d="M4.71421 5.33339H18.6428C18.9848 5.33339 19.2618 5.05638 19.2618 4.71439C19.2618 4.37241 18.9848 4.0954 18.6428 4.0954H4.71421C4.37221 4.0954 4.09521 4.37241 4.09521 4.71439C4.09521 5.05638 4.37222 5.33339 4.71421 5.33339Z" fill="white" />
<path d="M4.71421 5.48339H18.6428C19.0677 5.48339 19.4118 5.13922 19.4118 4.71439C19.4118 4.28956 19.0677 3.9454 18.6428 3.9454H4.71421C4.28937 3.9454 3.94521 4.28957 3.94521 4.71439C3.94521 5.13922 4.28938 5.48339 4.71421 5.48339Z" stroke="white" stroke-width="0.3"/>
</svg>
