<svg width="22" height="20" viewBox="0 0 22 20" fill="none" xmlns="http://www.w3.org/2000/svg">
<path d="M13.9791 13.25C15.0256 13.25 15.875 14.0993 15.875 15.1458L15.8739 16.188C16.0006 18.5605 14.237 19.7597 11.0725 19.7597C7.92004 19.7597 6.12496 18.5789 6.12496 16.2292V15.1458C6.12496 14.0993 6.97429 13.25 8.02079 13.25H13.9791ZM13.9791 14.875H8.02079C7.94896 14.875 7.88008 14.9035 7.82928 14.9543C7.77849 15.0051 7.74996 15.074 7.74996 15.1458V16.2292C7.74996 17.5032 8.71088 18.1348 11.0725 18.1348C13.4212 18.1348 14.3171 17.5238 14.25 16.2313V15.1458C14.25 15.074 14.2214 15.0051 14.1706 14.9543C14.1198 14.9035 14.051 14.875 13.9791 14.875ZM2.06246 7.83333H6.80313C6.66663 8.36366 6.63171 8.91502 6.70021 9.45833H2.06246C1.99063 9.45833 1.92174 9.48687 1.87095 9.53766C1.82016 9.58845 1.79163 9.65734 1.79163 9.72917V10.8125C1.79163 12.0865 2.75254 12.7181 5.11421 12.7181C5.61471 12.7181 6.04913 12.6899 6.42179 12.6347C5.80194 13.0274 5.3493 13.6355 5.15104 14.342L5.11421 14.3431C1.96171 14.3431 0.166626 13.1622 0.166626 10.8125V9.72917C0.166626 8.68267 1.01596 7.83333 2.06246 7.83333ZM19.9375 7.83333C20.984 7.83333 21.8333 8.68267 21.8333 9.72917L21.8322 10.7713C21.959 13.1438 20.1953 14.3431 17.0309 14.3431L16.8478 14.3409C16.6435 13.6151 16.1721 12.9935 15.5283 12.6011C15.9475 12.6791 16.4459 12.7181 17.0309 12.7181C19.3795 12.7181 20.2755 12.1071 20.2083 10.8147V9.72917C20.2083 9.65734 20.1798 9.58845 20.129 9.53766C20.0782 9.48687 20.0093 9.45833 19.9375 9.45833H15.3008C15.3678 8.91492 15.3326 8.36376 15.1968 7.83333H19.9375ZM11 5.66667C11.4268 5.66667 11.8494 5.75073 12.2437 5.91406C12.638 6.07739 12.9963 6.31678 13.2981 6.61857C13.5998 6.92036 13.8392 7.27864 14.0026 7.67295C14.1659 8.06725 14.25 8.48987 14.25 8.91667C14.25 9.34346 14.1659 9.76608 14.0026 10.1604C13.8392 10.5547 13.5998 10.913 13.2981 11.2148C12.9963 11.5166 12.638 11.7559 12.2437 11.9193C11.8494 12.0826 11.4268 12.1667 11 12.1667C10.138 12.1667 9.31136 11.8243 8.70186 11.2148C8.09237 10.6053 7.74996 9.77862 7.74996 8.91667C7.74996 8.05471 8.09237 7.22806 8.70186 6.61857C9.31136 6.00908 10.138 5.66667 11 5.66667ZM11 7.29167C10.7866 7.29167 10.5753 7.3337 10.3781 7.41536C10.1809 7.49703 10.0018 7.61672 9.85091 7.76762C9.70002 7.91851 9.58032 8.09765 9.49866 8.29481C9.41699 8.49196 9.37496 8.70327 9.37496 8.91667C9.37496 9.13006 9.41699 9.34137 9.49866 9.53853C9.58032 9.73568 9.70002 9.91482 9.85091 10.0657C10.0018 10.2166 10.1809 10.3363 10.3781 10.418C10.5753 10.4996 10.7866 10.5417 11 10.5417C11.4309 10.5417 11.8443 10.3705 12.149 10.0657C12.4538 9.76097 12.625 9.34764 12.625 8.91667C12.625 8.48569 12.4538 8.07236 12.149 7.76762C11.8443 7.46287 11.4309 7.29167 11 7.29167ZM5.04163 0.25C5.90358 0.25 6.73023 0.59241 7.33972 1.2019C7.94922 1.8114 8.29163 2.63805 8.29163 3.5C8.29163 4.36195 7.94922 5.1886 7.33972 5.7981C6.73023 6.40759 5.90358 6.75 5.04163 6.75C4.17967 6.75 3.35302 6.40759 2.74353 5.7981C2.13404 5.1886 1.79163 4.36195 1.79163 3.5C1.79163 2.63805 2.13404 1.8114 2.74353 1.2019C3.35302 0.59241 4.17967 0.25 5.04163 0.25ZM16.9583 0.25C17.8202 0.25 18.6469 0.59241 19.2564 1.2019C19.8659 1.8114 20.2083 2.63805 20.2083 3.5C20.2083 4.36195 19.8659 5.1886 19.2564 5.7981C18.6469 6.40759 17.8202 6.75 16.9583 6.75C16.0963 6.75 15.2697 6.40759 14.6602 5.7981C14.0507 5.1886 13.7083 4.36195 13.7083 3.5C13.7083 2.63805 14.0507 1.8114 14.6602 1.2019C15.2697 0.59241 16.0963 0.25 16.9583 0.25ZM5.04163 1.875C4.61065 1.875 4.19732 2.0462 3.89258 2.35095C3.58783 2.6557 3.41663 3.06902 3.41663 3.5C3.41663 3.93098 3.58783 4.3443 3.89258 4.64905C4.19732 4.95379 4.61065 5.125 5.04163 5.125C5.4726 5.125 5.88593 4.95379 6.19067 4.64905C6.49542 4.3443 6.66663 3.93098 6.66663 3.5C6.66663 3.06902 6.49542 2.6557 6.19067 2.35095C5.88593 2.0462 5.4726 1.875 5.04163 1.875ZM16.9583 1.875C16.5273 1.875 16.114 2.0462 15.8092 2.35095C15.5045 2.6557 15.3333 3.06902 15.3333 3.5C15.3333 3.93098 15.5045 4.3443 15.8092 4.64905C16.114 4.95379 16.5273 5.125 16.9583 5.125C17.3893 5.125 17.8026 4.95379 18.1073 4.64905C18.4121 4.3443 18.5833 3.93098 18.5833 3.5C18.5833 3.06902 18.4121 2.6557 18.1073 2.35095C17.8026 2.0462 17.3893 1.875 16.9583 1.875Z" fill="white"/>
</svg>
