<svg width="16" height="17" viewBox="0 0 19 10" fill="none" xmlns="http://www.w3.org/2000/svg">
<g transform="scale(0.5, 0.5)">
<path d="M5.33333 4.14685H26.6667C27.0203 4.14685 27.3594 4.28733 27.6095 4.53737C27.8595 4.78742 28 5.12656 28 5.48018V7.59485C27.9999 7.94844 27.8594 8.28753 27.6093 8.53752L19.056 17.0895C18.8064 17.3397 18.6664 17.6788 18.6667 18.0322V26.4389C18.6667 26.6415 18.6205 26.8415 18.5316 27.0237C18.4427 27.2058 18.3134 27.3653 18.1536 27.49C17.9938 27.6147 17.8077 27.7013 17.6095 27.7432C17.4112 27.7852 17.2059 27.7814 17.0093 27.7322L14.3427 27.0655C14.0543 26.9933 13.7984 26.8268 13.6155 26.5925C13.4327 26.3581 13.3333 26.0694 13.3333 25.7722V18.0322C13.3333 17.6786 13.1927 17.3395 12.9427 17.0895L4.38933 8.53752C4.13976 8.28731 3.99972 7.94825 4 7.59485V5.48018C4 5.12656 4.14048 4.78742 4.39052 4.53737C4.64057 4.28733 4.97971 4.14685 5.33333 4.14685V4.14685Z" stroke="black" stroke-width="2" stroke-linecap="round" stroke-linejoin="round"/>
</g>
</svg>
