<svg width="24" height="24" viewBox="0 0 24 24" fill="none" xmlns="http://www.w3.org/2000/svg">
<mask id="path-1-outside-1_126_257" maskUnits="userSpaceOnUse" x="0" y="0" width="24" height="24" fill="black">
<rect fill="white" width="24" height="24"/>
<path d="M22.4502 11.4501H16.3999C16.2707 10.6846 15.8755 9.98907 15.2838 9.48614C14.6923 8.98322 13.9425 8.70479 13.1661 8.70017H10.834C10.0576 8.70478 9.30775 8.98321 8.71625 9.48614C8.12457 9.98907 7.72938 10.6846 7.60011 11.4501H1.54987C1.24621 11.4501 1 11.6965 1 12.0002C1 12.3039 1.24621 12.5503 1.54987 12.5503H7.60011C7.7281 13.3084 8.11684 13.9983 8.69928 14.5002C9.28173 15.0024 10.0211 15.2853 10.79 15.3002H13.122C13.906 15.3059 14.6665 15.0323 15.267 14.5284C15.8677 14.0246 16.2694 13.3234 16.3999 12.5503H22.4501C22.7538 12.5503 23 12.3039 23 12.0002C23 11.6965 22.7538 11.4501 22.4501 11.4501H22.4502ZM15.3001 12.0661C15.3001 12.6322 15.0753 13.1749 14.6751 13.5752C14.2749 13.9754 13.7321 14.2003 13.1662 14.2003H10.8341C10.0481 14.2003 9.32185 13.781 8.92887 13.1001C8.53589 12.4195 8.53589 11.5809 8.92887 10.9002C9.32184 10.2195 10.0481 9.80012 10.8341 9.80012H13.1662C13.7497 9.81743 14.3024 10.0658 14.7027 10.4909C15.1029 10.9159 15.3178 11.4827 15.3001 12.0661ZM1.5501 4.8499H3.20008C3.32954 5.6156 3.72473 6.31096 4.31623 6.81407C4.90772 7.31699 5.65776 7.59523 6.43414 7.60004H8.76604C9.54261 7.59525 10.2925 7.317 10.884 6.81407C11.4754 6.31096 11.8706 5.6156 12.0001 4.8499H22.4501C22.7538 4.8499 23 4.60368 23 4.30002C23 3.99617 22.7538 3.74995 22.4501 3.74995H12.0001C11.8706 2.98444 11.4754 2.28889 10.884 1.78597C10.2925 1.28286 9.54261 1.00462 8.76604 1H6.43414C5.65776 1.0046 4.90772 1.28286 4.31623 1.78597C3.72473 2.28889 3.32954 2.98444 3.20008 3.74995H1.5501C1.24644 3.74995 1.00024 3.99617 1.00024 4.30002C1.00024 4.60369 1.24645 4.8499 1.5501 4.8499ZM4.3002 4.23393C4.3002 3.66802 4.52504 3.12512 4.92521 2.72497C5.32537 2.3248 5.86825 2.09994 6.43414 2.09994H8.76604C9.55218 2.09994 10.2783 2.51926 10.6714 3.19989C11.0644 3.88068 11.0644 4.71931 10.6714 5.39996C10.2783 6.08062 9.55218 6.49991 8.76604 6.49991H6.43414C5.85057 6.48278 5.29778 6.23418 4.89759 5.80917C4.49724 5.38414 4.28233 4.81751 4.3002 4.23393ZM22.45 19.15H20.8C20.6718 18.3917 20.2831 17.702 19.7007 17.1998C19.1183 16.6979 18.3788 16.4148 17.61 16.3999H15.2341C14.4575 16.4047 13.7077 16.6829 13.1162 17.1858C12.5247 17.689 12.1295 18.3843 12 19.15H1.55001C1.24635 19.15 1.00014 19.3962 1.00014 19.6999C1.00014 20.0037 1.24635 20.25 1.55001 20.25H12C12.128 21.0083 12.5168 21.698 13.0992 22.1999C13.6817 22.7021 14.4212 22.985 15.1901 22.9999H17.522C18.3061 23.0056 19.0664 22.7322 19.6671 22.2283C20.2676 21.7243 20.6693 21.0231 20.8 20.25H22.45C22.7537 20.25 22.9999 20.0037 22.9999 19.6999C22.9999 19.3962 22.7536 19.15 22.45 19.15ZM19.7001 19.766H19.6999C19.6999 20.3319 19.4751 20.8748 19.0749 21.2749C18.6747 21.6751 18.1319 21.9 17.566 21.9H15.2341C14.4479 21.9 13.7218 21.4807 13.3287 20.8C12.9357 20.1192 12.9357 19.2806 13.3287 18.6C13.7218 17.9193 14.4479 17.5 15.2341 17.5H17.566C18.1495 17.5171 18.7023 17.7657 19.1025 18.1907C19.5029 18.6158 19.7178 19.1824 19.6999 19.766H19.7001Z"/>
</mask>
<path d="M22.4502 11.4501H16.3999C16.2707 10.6846 15.8755 9.98907 15.2838 9.48614C14.6923 8.98322 13.9425 8.70479 13.1661 8.70017H10.834C10.0576 8.70478 9.30775 8.98321 8.71625 9.48614C8.12457 9.98907 7.72938 10.6846 7.60011 11.4501H1.54987C1.24621 11.4501 1 11.6965 1 12.0002C1 12.3039 1.24621 12.5503 1.54987 12.5503H7.60011C7.7281 13.3084 8.11684 13.9983 8.69928 14.5002C9.28173 15.0024 10.0211 15.2853 10.79 15.3002H13.122C13.906 15.3059 14.6665 15.0323 15.267 14.5284C15.8677 14.0246 16.2694 13.3234 16.3999 12.5503H22.4501C22.7538 12.5503 23 12.3039 23 12.0002C23 11.6965 22.7538 11.4501 22.4501 11.4501H22.4502ZM15.3001 12.0661C15.3001 12.6322 15.0753 13.1749 14.6751 13.5752C14.2749 13.9754 13.7321 14.2003 13.1662 14.2003H10.8341C10.0481 14.2003 9.32185 13.781 8.92887 13.1001C8.53589 12.4195 8.53589 11.5809 8.92887 10.9002C9.32184 10.2195 10.0481 9.80012 10.8341 9.80012H13.1662C13.7497 9.81743 14.3024 10.0658 14.7027 10.4909C15.1029 10.9159 15.3178 11.4827 15.3001 12.0661ZM1.5501 4.8499H3.20008C3.32954 5.6156 3.72473 6.31096 4.31623 6.81407C4.90772 7.31699 5.65776 7.59523 6.43414 7.60004H8.76604C9.54261 7.59525 10.2925 7.317 10.884 6.81407C11.4754 6.31096 11.8706 5.6156 12.0001 4.8499H22.4501C22.7538 4.8499 23 4.60368 23 4.30002C23 3.99617 22.7538 3.74995 22.4501 3.74995H12.0001C11.8706 2.98444 11.4754 2.28889 10.884 1.78597C10.2925 1.28286 9.54261 1.00462 8.76604 1H6.43414C5.65776 1.0046 4.90772 1.28286 4.31623 1.78597C3.72473 2.28889 3.32954 2.98444 3.20008 3.74995H1.5501C1.24644 3.74995 1.00024 3.99617 1.00024 4.30002C1.00024 4.60369 1.24645 4.8499 1.5501 4.8499ZM4.3002 4.23393C4.3002 3.66802 4.52504 3.12512 4.92521 2.72497C5.32537 2.3248 5.86825 2.09994 6.43414 2.09994H8.76604C9.55218 2.09994 10.2783 2.51926 10.6714 3.19989C11.0644 3.88068 11.0644 4.71931 10.6714 5.39996C10.2783 6.08062 9.55218 6.49991 8.76604 6.49991H6.43414C5.85057 6.48278 5.29778 6.23418 4.89759 5.80917C4.49724 5.38414 4.28233 4.81751 4.3002 4.23393ZM22.45 19.15H20.8C20.6718 18.3917 20.2831 17.702 19.7007 17.1998C19.1183 16.6979 18.3788 16.4148 17.61 16.3999H15.2341C14.4575 16.4047 13.7077 16.6829 13.1162 17.1858C12.5247 17.689 12.1295 18.3843 12 19.15H1.55001C1.24635 19.15 1.00014 19.3962 1.00014 19.6999C1.00014 20.0037 1.24635 20.25 1.55001 20.25H12C12.128 21.0083 12.5168 21.698 13.0992 22.1999C13.6817 22.7021 14.4212 22.985 15.1901 22.9999H17.522C18.3061 23.0056 19.0664 22.7322 19.6671 22.2283C20.2676 21.7243 20.6693 21.0231 20.8 20.25H22.45C22.7537 20.25 22.9999 20.0037 22.9999 19.6999C22.9999 19.3962 22.7536 19.15 22.45 19.15ZM19.7001 19.766H19.6999C19.6999 20.3319 19.4751 20.8748 19.0749 21.2749C18.6747 21.6751 18.1319 21.9 17.566 21.9H15.2341C14.4479 21.9 13.7218 21.4807 13.3287 20.8C12.9357 20.1192 12.9357 19.2806 13.3287 18.6C13.7218 17.9193 14.4479 17.5 15.2341 17.5H17.566C18.1495 17.5171 18.7023 17.7657 19.1025 18.1907C19.5029 18.6158 19.7178 19.1824 19.6999 19.766H19.7001Z" fill="white"/>
<path d="M16.3999 11.4501L16.1041 11.5001L16.1463 11.7501H16.3999V11.4501ZM15.2838 9.48614L15.0895 9.71469L15.0895 9.71473L15.2838 9.48614ZM13.1661 8.70017L13.1678 8.40017H13.1661V8.70017ZM10.834 8.70017V8.40017L10.8322 8.40018L10.834 8.70017ZM8.71625 9.48614L8.91055 9.71473L8.91058 9.71469L8.71625 9.48614ZM7.60011 11.4501V11.7501H7.8537L7.89593 11.5001L7.60011 11.4501ZM7.60011 12.5503L7.89593 12.5003L7.85372 12.2503H7.60011V12.5503ZM8.69928 14.5002L8.89518 14.273L8.89514 14.273L8.69928 14.5002ZM10.79 15.3002L10.7841 15.6002H10.79V15.3002ZM13.122 15.3002L13.1242 15.0002H13.122V15.3002ZM15.267 14.5284L15.0742 14.2986L15.0742 14.2986L15.267 14.5284ZM16.3999 12.5503V12.2503H16.1463L16.1041 12.5003L16.3999 12.5503ZM14.6751 13.5752L14.8872 13.7874L14.8873 13.7873L14.6751 13.5752ZM8.92887 13.1001L9.18869 12.9502L9.18867 12.9501L8.92887 13.1001ZM8.92887 10.9002L9.18867 11.0503L9.18869 11.0502L8.92887 10.9002ZM13.1662 9.80012L13.1751 9.50012H13.1662V9.80012ZM14.7027 10.4909L14.9211 10.2852L14.9211 10.2852L14.7027 10.4909ZM3.20008 4.8499L3.49589 4.79989L3.45362 4.5499H3.20008V4.8499ZM4.31623 6.81407L4.12186 7.04259L4.1219 7.04262L4.31623 6.81407ZM6.43414 7.60004L6.43228 7.90004H6.43414V7.60004ZM8.76604 7.60004V7.90005L8.76789 7.90003L8.76604 7.60004ZM10.884 6.81407L11.0783 7.04262L11.0783 7.04259L10.884 6.81407ZM12.0001 4.8499V4.5499H11.7466L11.7043 4.79989L12.0001 4.8499ZM12.0001 3.74995L11.7043 3.79998L11.7466 4.04995H12.0001V3.74995ZM10.884 1.78597L10.6896 2.01449L10.6896 2.01452L10.884 1.78597ZM8.76604 1L8.76782 0.7H8.76604V1ZM6.43414 1V0.699995L6.43236 0.700005L6.43414 1ZM4.31623 1.78597L4.51056 2.01452L4.5106 2.01449L4.31623 1.78597ZM3.20008 3.74995V4.04995H3.45361L3.49589 3.79998L3.20008 3.74995ZM4.92521 2.72497L5.13734 2.9371L5.13734 2.9371L4.92521 2.72497ZM10.6714 3.19989L10.9313 3.04991L10.9312 3.04983L10.6714 3.19989ZM10.6714 5.39996L10.9312 5.55002L10.9312 5.54996L10.6714 5.39996ZM6.43414 6.49991L6.42534 6.79991H6.43414V6.49991ZM4.89759 5.80917L5.116 5.60351L5.11596 5.60347L4.89759 5.80917ZM20.8 19.15L20.5042 19.2L20.5465 19.45H20.8V19.15ZM19.7007 17.1998L19.8965 16.9726L19.8965 16.9726L19.7007 17.1998ZM17.61 16.3999L17.6158 16.0999H17.61V16.3999ZM15.2341 16.3999V16.0999L15.2323 16.0999L15.2341 16.3999ZM13.1162 17.1858L12.9219 16.9573L12.9218 16.9573L13.1162 17.1858ZM12 19.15V19.45H12.2536L12.2958 19.2L12 19.15ZM12 20.25L12.2959 20.2L12.2537 19.95H12V20.25ZM13.0992 22.1999L13.2951 21.9727L13.2951 21.9727L13.0992 22.1999ZM15.1901 22.9999L15.1842 23.2999H15.1901V22.9999ZM17.522 22.9999L17.5242 22.6999H17.522V22.9999ZM19.6671 22.2283L19.8599 22.4582L19.86 22.4581L19.6671 22.2283ZM20.8 20.25V19.95H20.5465L20.5042 20.1999L20.8 20.25ZM19.6999 19.766V19.466H19.3999V19.766H19.6999ZM19.0749 21.2749L18.8628 21.0628L18.8628 21.0628L19.0749 21.2749ZM13.3287 20.8L13.0688 20.95L13.0689 20.9501L13.3287 20.8ZM13.3287 18.6L13.0689 18.4499L13.0689 18.45L13.3287 18.6ZM17.566 17.5L17.5748 17.2H17.566V17.5ZM19.1025 18.1907L18.8841 18.3964L18.8841 18.3964L19.1025 18.1907ZM19.6999 19.766L19.4 19.7568L19.3906 20.066H19.6999V19.766ZM22.4502 11.1501H16.3999V11.7501H22.4502V11.1501ZM16.6957 11.4002C16.5547 10.565 16.1236 9.80623 15.4781 9.25756L15.0895 9.71473C15.6274 10.1719 15.9866 10.8042 16.1041 11.5001L16.6957 11.4002ZM15.4781 9.25759C14.8329 8.70898 14.0149 8.40522 13.1678 8.40018L13.1643 9.00017C13.87 9.00437 14.5517 9.25746 15.0895 9.71469L15.4781 9.25759ZM13.1661 8.40017H10.834V9.00017H13.1661V8.40017ZM10.8322 8.40018C9.98517 8.4052 9.16715 8.70897 8.52192 9.25759L8.91058 9.71469C9.44834 9.25746 10.13 9.00435 10.8358 9.00017L10.8322 8.40018ZM8.52196 9.25756C7.87646 9.80623 7.44532 10.565 7.3043 11.4002L7.89593 11.5001C8.01343 10.8042 8.37269 10.1719 8.91055 9.71473L8.52196 9.25756ZM7.60011 11.1501H1.54987V11.7501H7.60011V11.1501ZM1.54987 11.1501C1.08038 11.1501 0.7 11.531 0.7 12.0002H1.3C1.3 11.8621 1.41203 11.7501 1.54987 11.7501V11.1501ZM0.7 12.0002C0.7 12.4694 1.08039 12.8503 1.54987 12.8503V12.2503C1.41203 12.2503 1.3 12.1383 1.3 12.0002H0.7ZM1.54987 12.8503H7.60011V12.2503H1.54987V12.8503ZM7.3043 12.6002C7.44391 13.4273 7.86799 14.1798 8.50343 14.7275L8.89514 14.273C8.36569 13.8167 8.01228 13.1896 7.89593 12.5003L7.3043 12.6002ZM8.50339 14.7275C9.13879 15.2753 9.9454 15.5839 10.7841 15.6002L10.7958 15.0003C10.0968 14.9867 9.42466 14.7295 8.89518 14.273L8.50339 14.7275ZM10.79 15.6002H13.122V15.0002H10.79V15.6002ZM13.1199 15.6002C13.975 15.6064 14.8047 15.3079 15.4598 14.7583L15.0742 14.2986C14.5283 14.7566 13.8369 15.0054 13.1242 15.0002L13.1199 15.6002ZM15.4598 14.7583C16.1151 14.2086 16.5533 13.4436 16.6957 12.6002L16.1041 12.5003C15.9854 13.2031 15.6203 13.8405 15.0742 14.2986L15.4598 14.7583ZM16.3999 12.8503H22.4501V12.2503H16.3999V12.8503ZM22.4501 12.8503C22.9196 12.8503 23.3 12.4694 23.3 12.0002H22.7C22.7 12.1383 22.588 12.2503 22.4501 12.2503V12.8503ZM23.3 12.0002C23.3 11.531 22.9196 11.1501 22.4501 11.1501V11.7501C22.588 11.7501 22.7 11.8621 22.7 12.0002H23.3ZM22.4501 11.7501H22.4502V11.1501H22.4501V11.7501ZM15.0001 12.0661C15.0001 12.5526 14.8069 13.019 14.4629 13.3632L14.8873 13.7873C15.3436 13.3308 15.6001 12.7118 15.6001 12.0661H15.0001ZM14.463 13.3631C14.1191 13.707 13.6525 13.9003 13.1662 13.9003V14.5003C13.8116 14.5003 14.4308 14.2438 14.8872 13.7874L14.463 13.3631ZM13.1662 13.9003H10.8341V14.5003H13.1662V13.9003ZM10.8341 13.9003C10.1553 13.9003 9.52808 13.5381 9.18869 12.9502L8.66904 13.2501C9.11561 14.0238 9.94093 14.5003 10.8341 14.5003V13.9003ZM9.18867 12.9501C8.84929 12.3623 8.84929 11.638 9.18867 11.0503L8.66906 10.7502C8.22249 11.5237 8.2225 12.4767 8.66906 13.2501L9.18867 12.9501ZM9.18869 11.0502C9.52808 10.4623 10.1553 10.1001 10.8341 10.1001V9.50012C9.94093 9.50012 9.1156 9.97665 8.66905 10.7503L9.18869 11.0502ZM10.8341 10.1001H13.1662V9.50012H10.8341V10.1001ZM13.1573 10.1C13.6613 10.1149 14.1386 10.3295 14.4843 10.6966L14.9211 10.2852C14.4662 9.80221 13.8382 9.51992 13.1751 9.50025L13.1573 10.1ZM14.4843 10.6965C14.8299 11.0636 15.0155 11.5531 15.0002 12.057L15.6 12.0752C15.6201 11.4123 15.3759 10.7682 14.9211 10.2852L14.4843 10.6965ZM1.5501 5.1499H3.20008V4.5499H1.5501V5.1499ZM2.90428 4.89991C3.04551 5.7352 3.47662 6.49376 4.12186 7.04259L4.5106 6.58555C3.97284 6.12815 3.61358 5.49599 3.49589 4.79989L2.90428 4.89991ZM4.1219 7.04262C4.76718 7.59128 5.58538 7.89479 6.43228 7.90003L6.436 7.30005C5.73013 7.29567 5.04826 7.0427 4.51056 6.58552L4.1219 7.04262ZM6.43414 7.90004H8.76604V7.30004H6.43414V7.90004ZM8.76789 7.90003C9.615 7.89481 10.433 7.59128 11.0783 7.04262L10.6896 6.58552C10.1519 7.04272 9.47022 7.29569 8.76419 7.30005L8.76789 7.90003ZM11.0783 7.04259C11.7236 6.49376 12.1547 5.7352 12.2959 4.89991L11.7043 4.79989C11.5866 5.49599 11.2273 6.12815 10.6896 6.58555L11.0783 7.04259ZM12.0001 5.1499H22.4501V4.5499H12.0001V5.1499ZM22.4501 5.1499C22.9195 5.1499 23.3 4.76936 23.3 4.30002H22.7C22.7 4.438 22.5881 4.5499 22.4501 4.5499V5.1499ZM23.3 4.30002C23.3 3.83055 22.9195 3.44995 22.4501 3.44995V4.04995C22.588 4.04995 22.7 4.16178 22.7 4.30002H23.3ZM22.4501 3.44995H12.0001V4.04995H22.4501V3.44995ZM12.2959 3.69993C12.1547 2.86486 11.7236 2.10608 11.0783 1.55742L10.6896 2.01452C11.2273 2.4717 11.5866 3.10403 11.7043 3.79998L12.2959 3.69993ZM11.0783 1.55745C10.433 1.00858 9.61498 0.705045 8.76782 0.700005L8.76425 1.29999C9.47024 1.30419 10.1519 1.55714 10.6896 2.01449L11.0783 1.55745ZM8.76604 0.7H6.43414V1.3H8.76604V0.7ZM6.43236 0.700005C5.58539 0.705028 4.76715 1.00858 4.12186 1.55745L4.5106 2.01449C5.04829 1.55714 5.73012 1.30418 6.43592 1.29999L6.43236 0.700005ZM4.1219 1.55742C3.47661 2.10608 3.0455 2.86486 2.90428 3.69993L3.49589 3.79998C3.61357 3.10403 3.97286 2.47171 4.51056 2.01452L4.1219 1.55742ZM3.20008 3.44995H1.5501V4.04995H3.20008V3.44995ZM1.5501 3.44995C1.08068 3.44995 0.700236 3.83056 0.700236 4.30002H1.30024C1.30024 4.16178 1.4122 4.04995 1.5501 4.04995V3.44995ZM0.700236 4.30002C0.700236 4.76937 1.08076 5.1499 1.5501 5.1499V4.5499C1.41213 4.5499 1.30024 4.43801 1.30024 4.30002H0.700236ZM4.6002 4.23393C4.6002 3.74757 4.79344 3.28098 5.13734 2.9371L4.71308 2.51283C4.25664 2.96925 4.0002 3.58847 4.0002 4.23393H4.6002ZM5.13734 2.9371C5.48124 2.5932 5.94781 2.39994 6.43414 2.39994V1.79994C5.78868 1.79994 5.1695 2.05641 4.71308 2.51284L5.13734 2.9371ZM6.43414 2.39994H8.76604V1.79994H6.43414V2.39994ZM8.76604 2.39994C9.44498 2.39994 10.0721 2.76206 10.4117 3.34995L10.9312 3.04983C10.4845 2.27645 9.65939 1.79994 8.76604 1.79994V2.39994ZM10.4116 3.34986C10.751 3.93786 10.751 4.66214 10.4116 5.24996L10.9312 5.54996C11.3778 4.77648 11.3778 3.8235 10.9313 3.04991L10.4116 3.34986ZM10.4117 5.24991C10.0721 5.83781 9.44499 6.19991 8.76604 6.19991V6.79991C9.65938 6.79991 10.4845 6.32343 10.9312 5.55002L10.4117 5.24991ZM8.76604 6.19991H6.43414V6.79991H8.76604V6.19991ZM6.44294 6.20004C5.93902 6.18525 5.46163 5.97057 5.116 5.60351L4.67917 6.01482C5.13393 6.49778 5.76211 6.78031 6.42534 6.79978L6.44294 6.20004ZM5.11596 5.60347C4.77021 5.2364 4.58463 4.74707 4.60006 4.24311L4.00034 4.22475C3.98003 4.88795 4.22427 5.53188 4.67921 6.01486L5.11596 5.60347ZM22.45 18.85H20.8V19.45H22.45V18.85ZM21.0958 19.1C20.956 18.2728 20.5319 17.5204 19.8965 16.9726L19.5048 17.4271C20.0343 17.8836 20.3877 18.5106 20.5042 19.2L21.0958 19.1ZM19.8965 16.9726C19.2613 16.425 18.4546 16.1162 17.6158 16.0999L17.6042 16.6998C18.3031 16.7134 18.9754 16.9707 19.5048 17.4271L19.8965 16.9726ZM17.61 16.0999H15.2341V16.6999H17.61V16.0999ZM15.2323 16.0999C14.3851 16.1051 13.5671 16.4086 12.9219 16.9573L13.3105 17.4144C13.8482 16.9572 14.5299 16.7042 15.236 16.6999L15.2323 16.0999ZM12.9218 16.9573C12.2766 17.5061 11.8455 18.2647 11.7042 19.1L12.2958 19.2C12.4135 18.5039 12.7728 17.8718 13.3106 17.4144L12.9218 16.9573ZM12 18.85H1.55001V19.45H12V18.85ZM1.55001 18.85C1.08065 18.85 0.700141 19.2306 0.700141 19.6999H1.30014C1.30014 19.5619 1.41204 19.45 1.55001 19.45V18.85ZM0.700141 19.6999C0.700141 20.1694 1.08059 20.55 1.55001 20.55V19.95C1.41211 19.95 1.30014 19.8381 1.30014 19.6999H0.700141ZM1.55001 20.55H12V19.95H1.55001V20.55ZM11.7042 20.2999C11.8438 21.1272 12.2679 21.8795 12.9034 22.4272L13.2951 21.9727C12.7656 21.5164 12.4122 20.8894 12.2959 20.2L11.7042 20.2999ZM12.9033 22.4272C13.5387 22.975 14.3455 23.2836 15.1842 23.2999L15.1959 22.7C14.4969 22.6864 13.8246 22.4292 13.2951 21.9727L12.9033 22.4272ZM15.1901 23.2999H17.522V22.6999H15.1901V23.2999ZM17.5198 23.2999C18.3751 23.3061 19.2046 23.0078 19.8599 22.4582L19.4743 21.9985C18.9283 22.4565 18.237 22.7051 17.5242 22.6999L17.5198 23.2999ZM19.86 22.4581C20.515 21.9083 20.9532 21.1433 21.0958 20.3L20.5042 20.1999C20.3854 20.9028 20.0202 21.5403 19.4743 21.9985L19.86 22.4581ZM20.8 20.55H22.45V19.95H20.8V20.55ZM22.45 20.55C22.9194 20.55 23.2999 20.1694 23.2999 19.6999H22.6999C22.6999 19.8381 22.5879 19.95 22.45 19.95V20.55ZM23.2999 19.6999C23.2999 19.2305 22.9193 18.85 22.45 18.85V19.45C22.588 19.45 22.6999 19.5619 22.6999 19.6999H23.2999ZM19.7001 19.466H19.6999V20.066H19.7001V19.466ZM19.3999 19.766C19.3999 20.2523 19.2067 20.7189 18.8628 21.0628L19.287 21.4871C19.7435 21.0307 19.9999 20.4114 19.9999 19.766H19.3999ZM18.8628 21.0628C18.5189 21.4067 18.0523 21.6 17.566 21.6V22.2C18.2114 22.2 18.8306 21.9435 19.287 21.4871L18.8628 21.0628ZM17.566 21.6H15.2341V22.2H17.566V21.6ZM15.2341 21.6C14.5551 21.6 13.928 21.2379 13.5884 20.65L13.0689 20.9501C13.5156 21.7235 14.3407 22.2 15.2341 22.2V21.6ZM13.5885 20.65C13.2491 20.0621 13.2491 19.3378 13.5885 18.75L13.0689 18.45C12.6223 19.2234 12.6223 20.1764 13.0688 20.95L13.5885 20.65ZM13.5884 18.75C13.928 18.1621 14.5551 17.8 15.2341 17.8V17.2C14.3407 17.2 13.5156 17.6765 13.0689 18.4499L13.5884 18.75ZM15.2341 17.8H17.566V17.2H15.2341V17.8ZM17.5572 17.7999C18.0611 17.8147 18.5385 18.0293 18.8841 18.3964L19.3209 17.9851C18.8662 17.5021 18.238 17.2196 17.5748 17.2001L17.5572 17.7999ZM18.8841 18.3964C19.2299 18.7635 19.4155 19.2528 19.4 19.7568L19.9998 19.7752C20.0201 19.112 19.7758 18.468 19.3209 17.9851L18.8841 18.3964ZM19.6999 20.066H19.7001V19.466H19.6999V20.066Z" fill="white" mask="url(#path-1-outside-1_126_257)"/>
</svg>
