<svg width="25" height="28" viewBox="0 0 25 28" fill="none" xmlns="http://www.w3.org/2000/svg">
<path d="M7.05696 1.00085C6.68509 1.04163 6.4061 1.35988 6.41418 1.73401V2.45583H6.05313C4.86602 2.45583 3.88761 3.43425 3.88761 4.62136V5.50129C2.22791 5.97664 1 7.50613 1 9.31362C1 10.9154 1.96153 12.2971 3.33472 12.923C1.95953 13.5482 1 14.9277 1 16.5325V26.2779C1 26.6767 1.32328 26.9997 1.72182 27H8.21879C8.61735 26.9997 8.94061 26.6767 8.94061 26.2779V18.5293C9.59469 18.3492 13.2447 17.3434 14.9301 16.871C15.3918 16.7449 15.8463 16.5518 16.2272 16.2056C16.6081 15.8594 16.8813 15.3219 16.8813 14.728C16.8813 13.5406 15.9031 12.5624 14.7158 12.5624H7.23715C8.26114 11.8429 8.94042 10.654 8.94042 9.31381C8.94042 7.25102 7.34795 5.54931 5.33099 5.366V4.62149C5.33099 4.20909 5.64042 3.89967 6.05281 3.89967H21.9343C22.3467 3.89967 22.6561 4.2091 22.6561 4.62149V14.006C22.6561 14.4184 22.3527 14.7248 21.9343 14.7278L19.0467 14.7505C18.8533 14.7477 18.6673 14.8225 18.5295 14.9582C18.3918 15.0939 18.3145 15.279 18.3145 15.4723C18.3145 15.6657 18.3918 15.8507 18.5295 15.9864C18.6673 16.1222 18.8533 16.1969 19.0467 16.1942L21.9343 16.1718C23.1153 16.1632 24.0998 15.1933 24.0998 14.006V4.62146C24.0998 3.43434 23.1214 2.45593 21.9343 2.45593H21.5732V1.73411C21.5763 1.53874 21.5 1.35041 21.3618 1.21218C21.2238 1.07396 21.0355 0.99767 20.8401 1.00094C20.6487 1.00371 20.4662 1.08277 20.333 1.22024C20.1996 1.3577 20.1266 1.54251 20.1296 1.73411V2.45593H7.85752V1.73411C7.86055 1.53874 7.78426 1.35041 7.64629 1.21218C7.50807 1.07396 7.31974 0.99767 7.12436 1.00094C7.10195 0.999685 7.07929 0.999685 7.05663 1.00094L7.05696 1.00085ZM4.97026 6.78708C6.37439 6.78708 7.49705 7.90974 7.49705 9.31362C7.49705 10.7175 6.37439 11.8401 4.97026 11.8401C3.56639 11.8401 2.44373 10.7175 2.44373 9.31362C2.44373 7.90974 3.56639 6.78708 4.97026 6.78708ZM18.2575 11.8401C18.0659 11.8492 17.8858 11.9338 17.7567 12.0756C17.6278 12.2173 17.5603 12.4044 17.5691 12.596C17.5782 12.7876 17.6628 12.9676 17.8045 13.0965C17.9463 13.2257 18.1336 13.2931 18.3252 13.2841H20.4907C20.6841 13.2868 20.8701 13.2118 21.0079 13.0764C21.1456 12.9406 21.2229 12.7553 21.2229 12.5622C21.2229 12.3689 21.1456 12.1838 21.0079 12.0481C20.8701 11.9124 20.6841 11.8376 20.4907 11.8401H18.3252C18.3025 11.8391 18.2799 11.8391 18.2575 11.8401L18.2575 11.8401ZM4.97026 14.0059H14.7157C15.1228 14.0059 15.4375 14.3207 15.4375 14.7278C15.4375 14.9352 15.3932 15.01 15.257 15.1339C15.1208 15.2577 14.8663 15.396 14.5465 15.4836H14.5352C12.7121 15.9942 8.02663 17.277 8.02663 17.277C7.71242 17.3636 7.49514 17.6501 7.49665 17.9764V25.5562H2.44332V16.5326C2.44332 15.1204 3.55767 14.0061 4.96985 14.0061L4.97026 14.0059Z" fill="white"/>
<path d="M6.26418 1.73556C6.2553 1.28447 6.59196 0.90095 7.04061 0.851741L7.05131 0.905077L7.04831 0.851175C7.07464 0.849712 7.10103 0.849612 7.12726 0.850891C7.36142 0.848424 7.58671 0.940473 7.75235 1.10611L7.75245 1.10621C7.91875 1.27282 8.01084 1.4997 8.00752 1.7352V2.30593H19.9796V1.73521C19.9763 1.50437 20.0644 1.2816 20.2254 1.11576C20.3862 0.949849 20.6065 0.854356 20.8377 0.850962M6.26418 1.73556L21.3618 1.21218M6.26418 1.73556V2.30583H6.05313C4.78318 2.30583 3.73761 3.3514 3.73761 4.62136V5.38985L6.26418 1.73556ZM20.8377 0.850962C21.0737 0.847052 21.3012 0.93922 21.4679 1.10621M20.8377 0.850962C20.8378 0.850962 20.8378 0.850961 20.8379 0.85096L20.8401 1.00094L20.8376 0.850965C20.8376 0.850964 20.8377 0.850963 20.8377 0.850962ZM21.4679 1.10621L21.3618 1.21218M21.4679 1.10621C21.4679 1.10618 21.4679 1.10615 21.4678 1.10612L21.3618 1.21218M21.4679 1.10621C21.6345 1.27286 21.7266 1.49977 21.7232 1.73527M21.3618 1.21218C21.5 1.35041 21.5763 1.53874 21.5732 1.73411M21.7232 1.73527V1.73411H21.5732M21.7232 1.73527C21.7232 1.73566 21.7232 1.73604 21.7232 1.73643L21.5732 1.73411M21.7232 1.73527L21.5732 1.73411M19.0471 14.6005C18.8142 14.5976 18.5901 14.6879 18.4243 14.8514C18.2579 15.0153 18.1645 15.2389 18.1645 15.4723C18.1645 15.7058 18.2579 15.9293 18.4243 16.0933C18.5904 16.257 18.8149 16.3473 19.0482 16.3442L19.0478 16.3442L19.0467 16.1942L19.0488 16.3441L19.0467 14.7505M19.0471 14.6005L19.0455 14.6005L19.0467 14.7505M19.0471 14.6005C19.0476 14.6005 19.0482 14.6005 19.0488 14.6005L19.0467 14.7505M19.0471 14.6005L21.9331 14.5778H21.9332C22.2698 14.5754 22.5061 14.3354 22.5061 14.006V4.62149C22.5061 4.29194 22.2638 4.04967 21.9343 4.04967H6.05281C5.72326 4.04967 5.48099 4.29193 5.48099 4.62149V5.23131M19.0467 14.7505L21.9343 14.7278C22.3527 14.7248 22.6561 14.4184 22.6561 14.006V4.62149C22.6561 4.2091 22.3467 3.89967 21.9343 3.89967H6.05281C5.64042 3.89967 5.33099 4.20909 5.33099 4.62149V5.366M5.48099 5.23131C5.43573 5.22567 5.39025 5.22077 5.34457 5.21661L5.33099 5.366M5.48099 5.23131V5.366H5.33099M5.48099 5.23131C7.50905 5.4841 9.09042 7.21908 9.09042 9.31381C9.09042 10.5477 8.53608 11.6569 7.671 12.4124M5.33099 5.366C7.34795 5.54931 8.94042 7.25102 8.94042 9.31381C8.94042 10.5647 8.34865 11.6837 7.43716 12.4124H7.671M7.671 12.4124H14.7158C15.986 12.4124 17.0313 13.4577 17.0313 14.728C17.0313 15.3673 16.7379 15.9442 16.3281 16.3166C15.9234 16.6844 15.4445 16.886 14.9702 17.0156M7.671 12.4124C7.61183 12.4641 7.55121 12.5141 7.48921 12.5624H14.7158C15.9031 12.5624 16.8813 13.5406 16.8813 14.728C16.8813 15.3219 16.6081 15.8594 16.2272 16.2056C15.8463 16.5518 15.3918 16.7449 14.9301 16.871C13.2447 17.3434 9.59469 18.3492 8.94061 18.5293M14.9702 17.0156L8.21879 27C8.61735 26.9997 8.94061 26.6767 8.94061 26.2779V18.5293M14.9702 17.0156C14.9703 17.0155 14.9704 17.0155 14.9705 17.0155L14.9301 16.8711L14.9696 17.0157C14.9698 17.0157 14.97 17.0156 14.9702 17.0156ZM8.94061 18.5293L8.98041 18.6739C9.01083 18.6655 9.04773 18.6553 9.09061 18.6435V18.5293H8.94061ZM17.7036 13.2075C17.5323 13.0517 17.4302 12.8343 17.4193 12.6031L17.4193 12.6029C17.4086 12.3716 17.4901 12.1458 17.6457 11.9746L17.6458 11.9745C17.7475 11.8629 17.8753 11.7807 18.016 11.7339L17.9962 11.7017L18.2504 11.6903L18.2507 11.6903C18.2765 11.6891 18.3025 11.6891 18.3284 11.6901H20.4898M17.7036 13.2075C17.7036 13.2074 17.7035 13.2074 17.7035 13.2074L17.8045 13.0965L17.7036 13.2075ZM17.7036 13.2075C17.8739 13.3626 18.0986 13.444 18.3286 13.4341M18.3286 13.4341H20.4897M18.3286 13.4341H18.3252V13.2841M18.3286 13.4341C18.3298 13.434 18.331 13.434 18.3323 13.4339L18.3252 13.2841M20.4897 13.4341C20.7229 13.4371 20.9471 13.3465 21.113 13.1833L21.1131 13.1832C21.2795 13.0192 21.3729 12.7954 21.3729 12.5622C21.3729 12.3288 21.2795 12.1052 21.1131 11.9413C20.9471 11.7776 20.7228 11.6874 20.4898 11.6901M20.4897 13.4341C20.4893 13.4341 20.4889 13.4341 20.4886 13.4341L20.4907 13.2841M20.4897 13.4341H20.4907V13.2841M20.4898 11.6901H20.4907V11.8401L20.4888 11.6902C20.4891 11.6901 20.4894 11.6901 20.4898 11.6901ZM20.4907 13.2841H18.3252M20.4907 13.2841C20.6841 13.2868 20.8701 13.2118 21.0079 13.0764L18.3252 13.2841M21.5732 2.45593V2.30593H21.7232V2.45593H21.5732ZM21.9355 16.3217L21.9343 16.1718L21.9354 16.3217C21.9354 16.3217 21.9354 16.3217 21.9355 16.3217ZM2.99982 12.9229C3.05301 12.952 3.1069 12.9801 3.16146 13.0069C3.21843 12.9776 3.2762 12.9496 3.33472 12.923C3.27624 12.8964 3.2185 12.8684 3.16155 12.839C3.10695 12.8658 3.05303 12.8938 2.99982 12.9229ZM7.64629 1.21218L7.64629 1.21218L7.64629 1.21218ZM6.41418 2.45583H6.26418L6.41418 2.30583V2.45583ZM7.34665 17.9767V25.4062H2.59332V16.5326C2.59332 15.2033 3.64051 14.1561 4.96985 14.1561H4.99953L4.99993 14.1559H14.7157C15.04 14.1559 15.2875 14.4035 15.2875 14.7278C15.2875 14.8223 15.2771 14.8674 15.2625 14.8986C15.2475 14.9307 15.2209 14.964 15.1561 15.0229C15.0446 15.1242 14.8209 15.2501 14.526 15.3336H14.5146L14.4948 15.3391C13.5836 15.5943 11.9568 16.0426 10.5575 16.4271C9.85792 16.6194 9.2153 16.7956 8.74757 16.9239L8.19189 17.0762L8.04008 17.1177L8.00052 17.1286L7.99043 17.1313L7.98788 17.132L7.98724 17.1322L7.98708 17.1323L8.02663 17.277C7.71242 17.3636 7.49514 17.6501 7.49665 17.9764H7.34665V17.9767ZM4.97026 6.93708C6.29156 6.93708 7.34705 7.99259 7.34705 9.31362C7.34705 10.6346 6.29156 11.6902 4.97026 11.6902C3.64923 11.6902 2.59373 10.6346 2.59373 9.31362C2.59373 7.99259 3.64923 6.93708 4.97026 6.93708Z" stroke="white" stroke-width="0.3"/>
</svg>
