<svg width="26" height="26" viewBox="0 0 26 26" fill="none" xmlns="http://www.w3.org/2000/svg">
<path d="M17.3335 13C19.9053 14.2816 21.6668 16.9542 21.6668 20.5833V24.9167H4.3335V20.5833C4.3335 16.9498 6.10041 14.2729 8.66683 13M19.5002 7.58334C17.8752 7.58334 16.2502 7.97334 14.0835 5.41668C11.9168 7.97334 9.2085 8.66668 6.50016 7.58334M7.5835 14.0833L13.0272 19.7784L18.4168 14.0833M13.0002 19.5V24.9167M13.0002 14.0833C13.8538 14.0833 14.699 13.9152 15.4876 13.5886C16.2762 13.2619 16.9928 12.7831 17.5964 12.1795C18.1999 11.576 18.6787 10.8594 19.0054 10.0708C19.332 9.28217 19.5002 8.43694 19.5002 7.58334C19.5002 6.72975 19.332 5.88452 19.0054 5.0959C18.6787 4.30728 18.1999 3.59073 17.5964 2.98715C16.9928 2.38357 16.2762 1.90478 15.4876 1.57813C14.699 1.25147 13.8538 1.08334 13.0002 1.08334C11.2763 1.08334 9.62295 1.76816 8.40397 2.98715C7.18498 4.20614 6.50016 5.85944 6.50016 7.58334C6.50016 9.30725 7.18498 10.9606 8.40397 12.1795C9.62295 13.3985 11.2763 14.0833 13.0002 14.0833V14.0833Z" stroke="white" stroke-width="2"/>
</svg>
