<svg width="22" height="22" viewBox="0 0 22 22" fill="none" xmlns="http://www.w3.org/2000/svg">
<path d="M2.33317 12.0833V14.25H19.6665V12.0833H2.33317ZM8.23734 21.0479C7.87623 21.2285 7.52414 21.2147 7.18109 21.0067C6.83803 20.7995 6.6665 20.4882 6.6665 20.0729V16.4167H2.33317C1.73734 16.4167 1.22745 16.2047 0.803504 15.7807C0.378837 15.3561 0.166504 14.8458 0.166504 14.25V2.33332C0.166504 1.73749 0.378837 1.22724 0.803504 0.802573C1.22745 0.378629 1.73734 0.166656 2.33317 0.166656H19.6665C20.2623 0.166656 20.7726 0.378629 21.1973 0.802573C21.6212 1.22724 21.8332 1.73749 21.8332 2.33332V14.25C21.8332 14.8458 21.6212 15.3561 21.1973 15.7807C20.7726 16.2047 20.2623 16.4167 19.6665 16.4167H15.3332V20.0729C15.3332 20.4882 15.1616 20.7995 14.8186 21.0067C14.4755 21.2147 14.1234 21.2285 13.7623 21.0479L10.9998 19.6667L8.23734 21.0479ZM2.33317 8.83332H19.6665V2.33332H2.33317V8.83332ZM2.33317 14.25V2.33332V14.25Z" fill="white"/>
</svg>
