<svg width="26" height="26" viewBox="0 0 26 26" fill="none" xmlns="http://www.w3.org/2000/svg">
<path d="M17.3333 3.25C17.6207 3.25 17.8962 3.36414 18.0994 3.5673C18.3025 3.77047 18.4167 4.04602 18.4167 4.33333V5.41667H20.5833C21.158 5.41667 21.7091 5.64494 22.1154 6.05127C22.5217 6.4576 22.75 7.0087 22.75 7.58333V20.5833C22.75 21.158 22.5217 21.7091 22.1154 22.1154C21.7091 22.5217 21.158 22.75 20.5833 22.75H5.41667C4.84203 22.75 4.29093 22.5217 3.8846 22.1154C3.47827 21.7091 3.25 21.158 3.25 20.5833V7.58333C3.25 7.0087 3.47827 6.4576 3.8846 6.05127C4.29093 5.64494 4.84203 5.41667 5.41667 5.41667H7.58333V4.33333C7.58333 4.04602 7.69747 3.77047 7.90063 3.5673C8.1038 3.36414 8.37935 3.25 8.66667 3.25C8.95398 3.25 9.22953 3.36414 9.4327 3.5673C9.63586 3.77047 9.75 4.04602 9.75 4.33333V5.41667H16.25V4.33333C16.25 4.04602 16.3641 3.77047 16.5673 3.5673C16.7705 3.36414 17.046 3.25 17.3333 3.25V3.25ZM20.5833 7.58333H5.41667V20.5833H20.5833V7.58333ZM16.0593 10.1606C16.2637 9.96325 16.5373 9.85405 16.8214 9.85652C17.1054 9.85899 17.3771 9.97292 17.578 10.1738C17.7788 10.3746 17.8928 10.6464 17.8952 10.9304C17.8977 11.2144 17.7885 11.4881 17.5912 11.6924L12.2373 17.0473C12.1357 17.149 12.0151 17.2297 11.8822 17.2848C11.7494 17.3398 11.6071 17.3682 11.4633 17.3682C11.3195 17.3682 11.1772 17.3398 11.0443 17.2848C10.9115 17.2297 10.7909 17.149 10.6892 17.0473L8.39908 14.755C8.20175 14.5507 8.09255 14.277 8.09502 13.993C8.09749 13.7089 8.21142 13.4372 8.41228 13.2364C8.61314 13.0355 8.88485 12.9216 9.1689 12.9191C9.45295 12.9166 9.7266 13.0258 9.93092 13.2232L11.4638 14.755L16.0593 10.1606Z" fill="white"/>
</svg>
